<svg fill="none" height="24" viewBox="0 0 24 24" width="24" xmlns="http://www.w3.org/2000/svg"><circle cx="12" cy="12" fill="#fd5154" r="10"/><path clip-rule="evenodd" d="m8.44461 9.17169c-.19588-.19464-.19689-.51122-.00224-.7071.19464-.19588.51122-.19689.7071-.00225l2.85073 2.83266 2.8502-2.83217c.1959-.19464.5125-.19363.7071.00225.1947.19588.1937.51246-.0022.7071l-2.8457 2.82772 2.8457 2.8277c.1959.1947.1969.5112.0023.7071-.1947.1959-.5113.1969-.7071.0023l-2.8503-2.8323-2.85077 2.8328c-.19589.1946-.51247.1936-.70711-.0023s-.19363-.5125.00225-.7071l2.84623-2.8282z" fill="#fff" fill-rule="evenodd"/></svg>